<?xml version="1.0" ?><!DOCTYPE svg  PUBLIC '-//W3C//DTD SVG 1.1//EN'  'http://www.w3.org/Graphics/SVG/1.1/DTD/svg11.dtd'><svg enable-background="new 0 0 100 100" height="100px" id="Layer_1" version="1.1" viewBox="0 0 100 100" width="100px" xml:space="preserve" xmlns="http://www.w3.org/2000/svg" xmlns:xlink="http://www.w3.org/1999/xlink"><g><path d="M47.696,64.807c-6.365,0-11.352,4.901-11.352,11.159v0.192c0,6.258,4.986,11.159,11.352,11.159s11.352-4.901,11.352-11.159   v-0.192C59.048,69.708,54.062,64.807,47.696,64.807z M53.048,76.158c0,2.989-2.251,5.159-5.352,5.159s-5.352-2.17-5.352-5.159   v-0.192c0-2.989,2.251-5.159,5.352-5.159s5.352,2.17,5.352,5.159V76.158z"/><path d="M49.616,12.683c-8.443,0-15.806,2.558-21.888,7.606c-2.271,1.894-3.575,4.623-3.575,7.488c0,5.269,4.451,9.72,9.72,9.72   c2.109,0,4.283-0.759,6.121-2.137c2.945-2.21,5.912-3.239,9.334-3.239c3.869,0,5.831,1.284,5.831,3.815v0.192   c0,1.246,0,4.165-9.562,5.375c-2.342,0.292-4.332,1.378-5.603,3.057c-1.273,1.683-1.76,3.802-1.41,6.115l0.961,6.531   c0.623,4.209,4.051,7.264,8.151,7.264h0.768c3.989,0,7.356-2.919,8.099-6.944c12.799-3.146,19.284-10.466,19.284-21.781v-0.192   C75.847,21.66,65.551,12.683,49.616,12.683z M69.847,35.745c0,9.007-5.091,14.05-16.505,16.354c-1.22,0.246-2.16,1.22-2.365,2.447   l-0.295,1.766c-0.164,1.073-0.979,2.159-2.218,2.159h-0.768c-1.312,0-2.058-1.076-2.216-2.14l-0.962-6.542   c-0.073-0.48-0.087-1.149,0.259-1.606c0.286-0.378,0.841-0.635,1.568-0.726c3.664-0.464,14.813-1.875,14.813-11.328v-0.192   c0-4.745-3.108-9.815-11.831-9.815c-4.721,0-8.952,1.452-12.935,4.439c-0.794,0.596-1.712,0.937-2.521,0.937   c-1.981,0-3.72-1.738-3.72-3.72c0-0.635,0.185-1.852,1.412-2.875c5.042-4.186,10.946-6.22,18.051-6.22   c12.667,0,20.23,6.307,20.23,16.87V35.745z"/></g></svg>